<?xml version="1.0" standalone="no"?>
<!DOCTYPE svg PUBLIC "-//W3C//DTD SVG 20010904//EN"
 "http://www.w3.org/TR/2001/REC-SVG-20010904/DTD/svg10.dtd">
<svg version="1.0" xmlns="http://www.w3.org/2000/svg"
 width="360.000000pt" height="424.000000pt" viewBox="0 0 360.000000 424.000000"
 preserveAspectRatio="xMidYMid meet">

<g transform="translate(0.000000,424.000000) scale(0.100000,-0.100000)"
fill="#000000" stroke="none">
<path d="M0 2670 c0 -1308 2 -1569 13 -1564 8 3 20 -2 27 -11 10 -12 10 -15
-4 -15 -9 0 -16 -8 -16 -20 0 -11 6 -19 13 -18 7 2 12 -9 13 -27 0 -16 4 -47
8 -68 5 -27 4 -37 -3 -32 -6 3 -11 13 -11 21 0 8 -6 14 -14 14 -10 0 -12 7 -8
22 3 14 2 19 -6 14 -9 -5 -12 -88 -12 -297 l0 -289 248 0 248 0 3 117 c1 65 7
137 13 160 6 24 8 48 5 55 -2 7 -1 54 4 103 5 50 9 128 10 175 2 90 25 194 41
184 6 -4 5 3 -1 15 -7 12 -8 27 -4 34 4 6 8 20 8 30 0 13 13 23 38 32 26 9 37
9 34 2 -2 -6 -18 -15 -37 -20 -24 -6 -30 -11 -21 -20 8 -8 14 -8 23 1 7 7 16
12 20 12 13 0 9 -53 -6 -82 -8 -14 -16 -61 -20 -105 -3 -43 -6 -79 -6 -81 0
-2 -4 0 -10 3 -13 8 -13 -8 -1 -20 11 -11 14 -212 5 -315 -3 -36 -7 -113 -10
-173 l-5 -107 32 0 c25 0 29 3 20 13 -11 14 -9 176 5 341 3 44 7 127 8 185 3
127 16 241 27 241 5 0 8 8 7 18 -5 64 3 101 23 107 30 10 47 -10 20 -24 -12
-7 -21 -21 -21 -34 0 -16 3 -18 9 -8 13 20 24 -172 17 -276 -4 -49 -9 -133
-12 -188 -3 -55 -8 -160 -12 -233 -4 -73 -6 -137 -4 -142 2 -6 86 -10 220 -10
l217 0 0 200 c-1 109 -4 202 -8 206 -4 4 -2 13 4 21 9 9 8 17 -1 27 -6 8 -10
25 -8 38 2 17 10 23 34 25 28 2 31 0 28 -24 -1 -15 0 -32 4 -38 12 -17 28
-214 27 -337 l0 -118 25 0 c25 0 25 1 23 85 -1 62 2 85 11 85 8 0 11 -10 8
-30 -2 -16 0 -30 6 -30 11 0 22 -29 31 -79 l6 -34 253 -4 c176 -3 252 -1 247
7 -3 5 1 13 9 16 9 3 16 14 16 24 0 23 73 100 94 100 9 0 16 7 16 15 0 8 7 15
15 15 38 0 -22 -162 -63 -173 -9 -3 38 -5 106 -6 68 0 175 -3 237 -5 l114 -5
-1 157 c0 86 3 200 6 252 3 52 6 107 6 123 0 15 4 27 10 27 5 0 10 8 10 18 0
13 2 14 9 3 5 -7 14 -10 20 -7 6 4 12 1 13 -6 2 -20 7 -111 6 -128 0 -8 -2
-111 -5 -227 l-4 -213 36 0 36 0 -16 30 c-13 25 -15 58 -11 188 3 86 5 168 5
182 -1 31 0 59 1 131 1 55 2 57 32 63 16 3 33 4 38 1 4 -2 6 -44 4 -92 -2 -87
-3 -310 0 -430 1 -59 0 -62 -24 -66 -14 -2 75 -5 198 -6 123 0 221 2 218 7 -2
4 -7 34 -10 67 -3 33 -9 92 -14 130 -5 39 -11 113 -12 165 -1 52 -2 104 -3
115 -2 64 3 84 23 82 11 -1 20 -2 20 -3 0 -1 4 -25 10 -53 6 -34 6 -59 0 -71
-7 -13 -6 -20 6 -24 12 -5 14 -19 11 -71 -2 -36 0 -68 4 -71 4 -2 8 -30 8 -61
0 -31 3 -89 6 -129 7 -67 6 -74 -10 -74 -10 0 -16 -2 -13 -6 3 -3 89 -8 192
-11 170 -5 186 -4 186 11 0 10 6 38 14 64 21 73 52 203 85 357 5 22 16 63 25
90 9 28 20 62 25 77 5 14 6 38 4 52 -3 14 -2 42 1 62 7 34 8 35 25 20 10 -9
25 -16 34 -16 13 0 16 -9 14 -42 -2 -45 -76 -285 -108 -351 -31 -63 -19 -149
22 -162 10 -4 19 -21 22 -43 3 -20 9 -52 13 -71 5 -23 3 -36 -7 -42 -9 -6 0
-9 28 -9 l43 0 0 1940 0 1941 -1800 -1 -1800 -1 0 -1569z m90 1300 c0 -5 -4
-10 -10 -10 -5 0 -10 5 -10 10 0 6 5 10 10 10 6 0 10 -4 10 -10z m76 -77 c-10
-10 -19 5 -10 18 6 11 8 11 12 0 2 -7 1 -15 -2 -18z m54 10 c0 -5 -5 -15 -10
-23 -9 -13 -11 -13 -19 0 -5 8 -7 18 -5 22 6 10 34 11 34 1z m60 -4 c0 -5 -11
-9 -25 -9 -33 0 -33 15 0 16 14 1 25 -2 25 -7z m1795 -405 c55 -3 115 -7 133
-8 21 -1 31 -5 27 -13 -2 -8 4 -13 15 -13 11 0 20 -6 20 -13 0 -8 9 -22 21
-33 11 -10 18 -26 16 -36 -3 -11 0 -18 9 -18 8 0 14 -9 14 -20 0 -11 -4 -20
-10 -20 -5 0 -10 -16 -10 -36 0 -28 -3 -35 -15 -30 -13 5 -15 -2 -9 -47 5 -45
53 -152 74 -167 4 -3 13 -23 21 -45 7 -22 17 -44 21 -50 4 -5 8 -23 7 -40 0
-16 -3 -23 -6 -15 -9 24 -66 71 -79 66 -7 -3 -15 2 -18 10 -6 16 -56 20 -56 4
0 -5 -14 -10 -32 -10 -43 0 -32 -8 21 -14 39 -5 63 -17 96 -51 19 -19 56 -36
65 -30 5 3 12 -10 16 -30 5 -31 10 -35 36 -35 19 0 28 -4 25 -12 -2 -7 0 -21
4 -30 28 -54 24 -271 -7 -366 -8 -23 -17 -66 -20 -95 -4 -29 -10 -54 -15 -55
-5 -2 -7 -8 -4 -13 11 -18 7 -122 -5 -129 -7 -4 -10 -12 -6 -18 7 -12 -25
-102 -36 -102 -4 0 -8 -6 -8 -14 0 -17 -46 -67 -54 -59 -3 4 -6 0 -6 -7 0 -12
-28 -39 -41 -40 -4 0 -9 10 -13 22 -4 17 -8 20 -17 11 -8 -8 -8 -16 0 -31 7
-14 8 -23 1 -27 -5 -3 -10 1 -10 9 0 9 -7 16 -15 16 -8 0 -12 6 -10 13 14 35
12 76 -4 80 -27 6 -39 -3 -33 -25 3 -12 -1 -24 -10 -29 -20 -11 -12 -56 11
-62 15 -4 15 -5 0 -6 -9 0 -22 6 -29 14 -7 8 -18 15 -25 15 -16 0 -36 -46 -29
-65 4 -10 0 -15 -12 -15 -24 -1 -52 -22 -47 -35 2 -6 -7 -21 -19 -34 -21 -23
-22 -24 -37 -5 -17 21 -40 16 -78 -18 -21 -18 -123 -30 -123 -15 0 6 -21 7
-56 3 -47 -5 -62 -3 -89 14 -19 11 -35 24 -37 28 -5 11 -75 62 -85 62 -5 0
-19 14 -32 31 -21 29 -22 31 -6 55 9 14 14 32 11 40 -8 20 -46 18 -46 -3 0
-15 -3 -15 -21 4 -20 19 -20 23 -6 43 9 12 13 29 10 36 -11 30 39 13 77 -26
22 -22 47 -40 58 -40 10 0 23 -5 30 -12 20 -20 210 -16 251 4 19 10 42 18 53
18 10 0 18 4 18 9 0 6 -47 9 -112 8 -149 -3 -161 1 -193 64 -14 29 -24 54 -21
56 11 11 313 14 341 3 17 -6 48 -14 70 -16 22 -3 45 -11 51 -19 6 -8 19 -15
29 -15 14 0 16 5 10 28 -9 37 -41 60 -86 60 -21 0 -48 6 -61 13 -26 14 -171
13 -198 -1 -13 -7 -22 -4 -35 10 -10 11 -28 20 -40 20 -13 0 -28 7 -35 15 -15
18 -10 18 24 5 16 -6 26 -6 26 0 0 5 -18 15 -40 21 -36 11 -46 10 -90 -11 -28
-13 -52 -21 -55 -18 -10 10 6 36 26 41 19 5 27 27 9 27 -21 0 -10 39 13 43 22
4 22 4 -1 6 -15 0 -35 -10 -51 -28 -21 -22 -30 -26 -43 -17 -19 12 -39 -7 -59
-53 -8 -19 -12 -22 -22 -12 -9 10 -8 15 7 27 11 7 17 17 13 20 -4 4 -13 2 -21
-5 -15 -13 -66 -5 -66 11 0 5 -9 19 -20 30 -11 12 -19 27 -17 33 2 5 -5 18
-16 28 -11 9 -17 17 -12 17 4 0 2 7 -5 15 -7 9 -19 14 -27 11 -8 -3 -15 4 -19
19 -4 15 -13 25 -24 25 -10 0 -21 8 -24 18 -4 9 -13 29 -21 43 -8 14 -17 43
-20 64 -2 20 -7 45 -10 55 -8 24 11 70 29 70 7 0 19 6 25 14 6 7 29 16 51 20
28 4 38 10 34 20 -4 10 5 16 28 21 31 7 32 8 11 18 -26 11 -34 29 -23 48 7 11
13 10 29 -5 12 -11 21 -25 21 -33 0 -34 85 8 99 50 12 32 13 32 52 11 29 -15
30 -16 12 -30 -17 -14 -16 -15 10 -9 38 8 70 -11 61 -37 -5 -17 -3 -19 16 -13
14 4 28 1 40 -10 17 -15 19 -14 42 37 21 46 25 75 19 141 -1 4 -10 7 -21 7
-11 0 -20 6 -20 14 0 14 -46 28 -142 42 -24 4 -65 17 -93 29 -27 13 -62 26
-77 29 -16 4 -28 11 -28 16 0 6 -7 10 -16 10 -30 0 -7 25 27 30 24 4 30 8 20
14 -11 7 -11 10 0 17 20 13 29 11 29 -6 0 -8 7 -15 15 -15 9 0 15 9 15 22 0
29 11 16 19 -24 8 -38 23 -39 33 -2 5 18 0 35 -18 61 -28 41 -29 53 -9 108 19
53 19 76 0 69 -32 -13 -11 26 47 87 10 10 40 20 75 24 32 4 68 13 81 21 12 8
22 12 22 9 0 -3 15 2 33 11 17 10 48 22 68 28 38 12 204 12 374 0z m-812 -604
c31 0 9 -18 -28 -22 -29 -3 -35 -1 -35 15 0 15 5 18 23 13 12 -3 30 -6 40 -6z
m97 -60 c0 -5 -7 -10 -16 -10 -8 0 -12 5 -9 10 3 6 10 10 16 10 5 0 9 -4 9
-10z m1280 -45 c27 -29 21 -31 -21 -9 -28 14 -32 14 -48 0 -22 -20 -34 -10
-20 15 14 28 61 24 89 -6z m-12 -58 c10 -8 16 -7 23 4 8 12 10 12 19 -1 18
-25 3 -136 -47 -354 -12 -50 -21 -70 -34 -73 -11 -3 -19 -11 -19 -18 0 -17
-31 -41 -64 -49 l-28 -7 7 83 c7 77 25 128 46 128 5 0 9 7 9 15 0 9 -6 12 -15
9 -17 -7 -20 7 -5 22 8 8 17 50 19 92 1 7 5 11 10 8 13 -8 19 27 14 77 -9 74
18 100 65 64z m-1160 -559 c-2 -6 -10 -14 -16 -16 -7 -2 -10 2 -6 12 7 18 28
22 22 4z m-98 -78 c0 -5 -5 -10 -11 -10 -5 0 -7 5 -4 10 3 6 8 10 11 10 2 0 4
-4 4 -10z m1060 -305 c0 -9 7 -18 15 -21 12 -5 13 -10 4 -20 -6 -8 -8 -25 -5
-39 4 -14 2 -25 -3 -25 -5 0 -14 23 -20 50 -14 63 -14 70 -1 70 6 0 10 -7 10
-15z m-116 -102 c20 -131 -3 -283 -59 -398 -19 -38 -48 -105 -64 -147 -27 -73
-50 -105 -163 -232 -10 -11 -16 -22 -13 -25 3 -2 12 4 20 15 12 16 14 17 15 3
0 -19 -23 -31 -45 -23 -8 4 -15 2 -15 -2 0 -5 -18 -29 -40 -54 -22 -25 -50
-60 -63 -77 -27 -40 -44 -41 -81 -3 -16 17 -33 30 -38 30 -12 0 -31 16 -88 75
-47 48 -49 52 -44 97 4 45 2 49 -43 93 -26 25 -53 45 -59 45 -6 0 -24 16 -40
37 -26 34 -26 36 -6 31 28 -8 28 2 1 30 l-20 23 28 -6 c15 -3 22 -2 16 1 -16
7 -16 25 -1 61 6 15 10 31 10 36 -1 4 15 -2 35 -13 21 -11 43 -20 50 -20 7 0
13 -7 13 -16 0 -12 6 -15 23 -10 12 3 29 6 38 6 22 0 31 24 19 54 -7 19 -4 28
16 45 13 11 30 21 37 21 8 0 8 3 -2 9 -21 13 -7 26 31 29 18 1 38 8 43 16 7 9
28 12 74 9 58 -4 64 -3 52 11 -12 14 -10 16 18 16 17 0 31 4 31 10 0 5 10 9
21 7 15 -1 26 7 38 29 9 17 28 40 42 50 62 44 142 119 150 142 8 20 12 22 24
12 12 -10 15 -9 15 4 0 32 18 15 24 -21z m170 -18 c3 -9 0 -15 -9 -15 -9 0
-12 6 -9 15 4 8 7 15 9 15 2 0 5 -7 9 -15z m206 -221 c0 -25 -25 -14 -26 11
-2 21 1 24 12 14 8 -6 14 -18 14 -25z m-160 6 c0 -5 7 -10 16 -10 12 0 15 -6
10 -24 -4 -18 2 -36 19 -62 14 -20 25 -44 26 -53 0 -9 9 -29 20 -46 31 -50 79
-152 79 -172 0 -10 7 -27 15 -37 8 -11 15 -28 15 -38 0 -19 -11 -20 -90 -9 -2
1 1 6 7 12 8 8 5 20 -12 46 -13 19 -21 41 -18 49 3 8 0 14 -6 14 -6 0 -8 7 -4
16 4 10 0 20 -10 26 -10 5 -17 21 -17 37 0 16 -7 42 -15 57 -8 16 -15 38 -15
49 0 11 -7 39 -15 62 -8 23 -12 49 -9 58 3 8 1 15 -5 15 -6 0 -11 5 -11 10 0
6 5 10 10 10 6 0 10 -4 10 -10z m200 -47 c0 -13 -3 -13 -15 -3 -8 7 -12 16 -9
21 8 13 24 1 24 -18z m-1474 -80 c14 -32 34 -76 44 -98 13 -29 15 -41 7 -44
-7 -2 -15 -9 -19 -15 -4 -6 -11 -7 -15 -2 -4 5 -2 11 5 13 14 6 16 35 2 49 -5
5 -18 34 -29 64 -10 30 -22 63 -26 73 -4 9 -5 17 -1 17 3 0 17 -26 32 -57z
m1171 4 c1 -23 5 -63 9 -89 4 -33 3 -48 -5 -48 -6 0 -11 11 -11 24 0 14 -4 27
-10 31 -10 6 -12 87 -3 118 8 28 18 10 20 -36z m418 33 c3 -5 2 -10 -4 -10 -5
0 -13 5 -16 10 -3 6 -2 10 4 10 5 0 13 -4 16 -10z m-2315 -20 c0 -5 -17 -10
-37 -9 -34 1 -35 2 -13 9 36 11 50 11 50 0z m230 6 c0 -3 -4 -8 -10 -11 -5 -3
-10 -1 -10 4 0 6 5 11 10 11 6 0 10 -2 10 -4z m2178 -32 c14 -4 21 -12 18 -20
-3 -8 0 -14 6 -14 9 0 9 -3 0 -12 -14 -14 -17 -42 -4 -34 10 6 28 -26 36 -66
7 -33 -11 -46 -29 -22 -11 16 -16 17 -27 5 -11 -11 -10 -15 3 -24 13 -8 15
-15 7 -33 -6 -13 -7 -31 -3 -41 5 -10 7 -23 6 -30 -1 -6 3 -14 8 -18 16 -9 1
-35 -21 -35 -19 0 -20 5 -17 155 2 85 1 155 -3 155 -4 0 -12 9 -18 20 -12 22
-4 25 38 14z m-1921 -16 c-2 -7 -1 -20 4 -29 15 -29 -39 -265 -60 -263 -6 1
-22 2 -36 3 -14 0 -25 7 -25 14 0 38 101 287 116 287 3 0 4 -6 1 -12z m-620
-14 c-3 -3 -12 -4 -19 -1 -8 3 -5 6 6 6 11 1 17 -2 13 -5z m436 -14 c-6 -22
-21 -35 -29 -27 -7 7 15 47 25 47 5 0 7 -9 4 -20z m2231 14 c12 -5 16 -20 16
-58 0 -28 5 -67 10 -86 8 -28 23 -331 21 -410 -1 -33 -9 -136 -11 -145 -4 -19
-18 40 -19 82 -1 29 -6 45 -18 52 -20 11 -22 28 -23 255 -1 91 3 163 9 169 6
6 -1 26 -20 57 -37 60 -38 90 -5 90 13 0 31 -3 40 -6z m251 -35 c4 -6 17 -14
29 -19 18 -8 18 -9 3 -9 -11 -1 -30 8 -44 19 -18 14 -21 20 -10 20 9 0 19 -5
22 -11z m-805 -11 c0 -7 3 -24 6 -38 5 -17 3 -22 -3 -15 -15 15 -25 65 -13 65
5 0 10 -6 10 -12z m859 -37 c8 -5 9 -11 3 -15 -13 -8 -42 3 -42 15 0 11 21 11
39 0z m92 -21 c31 -17 21 -30 -11 -14 -16 9 -30 17 -30 20 0 7 21 4 41 -6z
m-3141 -20 c0 -5 -15 -10 -32 -10 -25 0 -29 3 -18 10 20 13 50 13 50 0z m2223
-32 c18 4 18 3 0 -15 -16 -17 -19 -17 -30 -3 -7 8 -12 24 -12 35 0 20 0 20 12
0 7 -13 20 -19 30 -17z m-2387 -128 c2 -25 7 -71 10 -103 4 -36 2 -62 -5 -71
-8 -10 -8 -21 -1 -41 12 -31 19 -144 10 -150 -7 -4 -27 60 -40 130 -5 28 -14
70 -19 95 -6 25 -10 71 -11 102 0 31 -4 59 -9 62 -9 6 5 57 23 85 12 19 36
-44 42 -109z m2414 95 c0 -8 -4 -15 -10 -15 -5 0 -10 7 -10 15 0 8 5 15 10 15
6 0 10 -7 10 -15z m-315 -35 c3 -5 1 -10 -4 -10 -6 0 -11 5 -11 10 0 6 2 10 4
10 3 0 8 -4 11 -10z m55 -5 c0 -16 -27 -32 -37 -22 -3 4 -3 13 0 22 8 20 37
20 37 0z m286 -42 c-7 -7 -26 7 -26 19 0 6 6 6 15 -2 9 -7 13 -15 11 -17z
m-2293 -66 c-7 -11 -23 2 -23 19 0 12 2 12 14 2 8 -7 12 -16 9 -21z m1853 8
c2 -15 -7 -24 -38 -38 -28 -11 -45 -14 -52 -7 -7 7 -6 10 2 10 7 0 12 6 12 14
0 17 40 46 59 43 8 -1 15 -11 17 -22z m564 -25 c0 -5 -2 -10 -4 -10 -3 0 -8 5
-11 10 -3 6 -1 10 4 10 6 0 11 -4 11 -10z m120 -30 c0 -11 -6 -20 -14 -20 -9
0 -12 7 -9 20 3 11 9 20 14 20 5 0 9 -9 9 -20z m-1556 -5 c-4 -9 0 -15 9 -15
24 0 30 -31 7 -37 -11 -3 -20 -10 -20 -15 0 -5 4 -7 9 -3 13 8 18 -3 26 -57 7
-46 6 -48 -16 -47 -13 0 -19 3 -13 5 6 2 8 18 6 35 -5 35 -22 21 -22 -18 0
-13 -4 -23 -9 -23 -12 0 -21 37 -20 85 0 34 2 37 9 18 16 -39 22 -25 15 32 -6
46 -5 55 9 55 10 0 13 -6 10 -15z m2132 -7 c-3 -13 -6 -31 -6 -40 0 -19 -17
-23 -39 -9 -12 8 -12 12 2 26 10 9 17 23 17 31 0 8 7 14 16 14 12 0 15 -6 10
-22z m-1250 -22 c8 -44 2 -52 -40 -60 -21 -4 -36 -13 -39 -26 -3 -11 -19 -23
-43 -29 -22 -6 -52 -19 -68 -30 -16 -11 -35 -17 -42 -14 -8 3 -14 0 -14 -6 0
-6 -7 -11 -16 -11 -14 0 -14 2 0 15 8 8 17 24 21 35 3 10 15 22 26 25 10 4 19
11 19 16 0 16 47 51 112 84 35 18 66 33 70 33 4 1 10 -13 14 -32z m1134 -3 c0
-19 -5 -23 -32 -23 -27 1 -30 2 -16 11 9 5 15 16 12 24 -4 9 1 13 15 12 15 -1
21 -8 21 -24z m-2340 7 c0 -5 -2 -10 -4 -10 -3 0 -8 5 -11 10 -3 6 -1 10 4 10
6 0 11 -4 11 -10z m-933 -32 c-3 -8 -6 -5 -6 6 -1 11 2 17 5 13 3 -3 4 -12 1
-19z m968 3 c7 -12 -12 -24 -25 -16 -11 7 -4 25 10 25 5 0 11 -4 15 -9z m-734
-17 c10 -12 10 -17 0 -23 -10 -6 -9 -12 4 -25 16 -16 16 -18 -1 -31 -13 -9
-24 -10 -36 -4 -20 11 -25 39 -7 39 6 0 9 7 5 15 -6 17 2 45 14 45 4 0 13 -7
21 -16z m1989 -18 c0 -3 -4 -8 -10 -11 -5 -3 -10 -1 -10 4 0 6 5 11 10 11 6 0
10 -2 10 -4z m-2200 -16 c0 -5 -4 -10 -10 -10 -5 0 -10 5 -10 10 0 6 5 10 10
10 6 0 10 -4 10 -10z m300 -6 c0 -8 -5 -12 -10 -9 -6 4 -8 11 -5 16 9 14 15
11 15 -7z m3040 1 c0 -8 -7 -15 -15 -15 -26 0 -18 20 13 29 1 1 2 -6 2 -14z
m-2400 -26 c0 -7 7 -17 15 -23 13 -9 11 -15 -11 -41 -16 -20 -27 -26 -30 -17
-3 6 -12 12 -20 12 -18 0 -19 66 -1 73 22 10 47 7 47 -4z m507 -11 c-3 -8 -6
-5 -6 6 -1 11 2 17 5 13 3 -3 4 -12 1 -19z m-1143 -9 c-3 -5 -10 -7 -15 -3 -5
3 -7 10 -3 15 3 5 10 7 15 3 5 -3 7 -10 3 -15z m76 11 c0 -5 -2 -10 -4 -10 -3
0 -8 5 -11 10 -3 6 -1 10 4 10 6 0 11 -4 11 -10z m-40 -10 c0 -5 -4 -10 -10
-10 -5 0 -10 5 -10 10 0 6 5 10 10 10 6 0 10 -4 10 -10z m3140 -12 c-1 -7 -7
-24 -15 -38 -14 -25 -14 -25 -15 -2 0 12 4 22 10 22 5 0 7 7 4 15 -4 8 -1 15
5 15 6 0 11 -6 11 -12z m-3255 -64 c0 -32 -4 -39 -26 -45 -25 -6 -27 -4 -32
34 -7 50 6 69 36 58 17 -7 22 -17 22 -47z m141 15 c14 -12 13 -14 -8 -22 -22
-9 -22 -9 -3 -16 14 -6 6 -9 -30 -14 -28 -3 -51 -4 -52 -3 -1 1 0 18 3 38 6
34 8 36 40 33 18 -1 41 -8 50 -16z m904 1 c0 -5 -6 -10 -14 -10 -8 0 -18 5
-21 10 -3 6 3 10 14 10 12 0 21 -4 21 -10z m2215 0 c3 -5 1 -10 -4 -10 -6 0
-11 5 -11 10 0 6 2 10 4 10 3 0 8 -4 11 -10z m-2215 -49 c0 -19 -28 -37 -39
-25 -3 4 0 9 7 11 6 3 12 11 12 19 0 8 5 14 10 14 6 0 10 -9 10 -19z m576 4
c-8 -8 -17 -15 -20 -15 -3 0 -3 7 0 15 4 8 13 15 21 15 12 0 12 -2 -1 -15z
m94 -1 c0 -10 -6 -13 -18 -10 -13 4 -21 -2 -29 -24 -13 -34 -28 -39 -36 -11
-7 27 3 38 43 49 19 6 36 11 38 11 1 1 2 -6 2 -15z m-723 -16 c-3 -8 -6 -5 -6
6 -1 11 2 17 5 13 3 -3 4 -12 1 -19z m2280 -20 c-3 -8 -6 -5 -6 6 -1 11 2 17
5 13 3 -3 4 -12 1 -19z m43 6 c0 -8 -5 -12 -10 -9 -6 4 -8 11 -5 16 9 14 15
11 15 -7z m-1700 -29 c20 -24 -4 -69 -31 -62 -18 5 -20 2 -16 -19 3 -16 -2
-29 -14 -37 -9 -7 -23 -25 -30 -40 -7 -15 -16 -27 -21 -27 -10 0 2 83 13 90 4
3 11 19 14 35 16 67 56 95 85 60z m-243 -11 c-3 -3 -12 -4 -19 -1 -8 3 -5 6 6
6 11 1 17 -2 13 -5z m50 -26 c-3 -8 -6 -5 -6 6 -1 11 2 17 5 13 3 -3 4 -12 1
-19z m-1280 -20 c-3 -7 -5 -2 -5 12 0 14 2 19 5 13 2 -7 2 -19 0 -25z m1241 4
c4 -25 -13 -30 -22 -6 -9 25 -7 36 7 32 6 -3 13 -14 15 -26z m-1414 3 c-4 -8
-8 -15 -10 -15 -2 0 -4 7 -4 15 0 8 4 15 10 15 5 0 7 -7 4 -15z m96 5 c0 -5
-4 -10 -10 -10 -5 0 -10 -7 -10 -17 0 -9 -3 -14 -6 -10 -8 8 5 47 17 47 5 0 9
-4 9 -10z m-189 -44 c-9 -10 -9 -16 -1 -21 8 -5 8 -11 1 -19 -6 -7 -8 -16 -4
-19 3 -4 -6 -7 -20 -7 -15 0 -27 3 -27 6 0 10 22 48 38 67 18 20 30 14 13 -7z
m90 -49 c-7 -7 -9 -1 -6 19 5 40 7 43 12 15 3 -13 0 -28 -6 -34z m142 46 c3
-5 2 -15 -2 -23 -5 -12 -10 -11 -28 8 l-22 22 24 0 c13 0 26 -3 28 -7z m1277
-27 c0 -15 -18 -31 -26 -23 -7 7 7 37 17 37 5 0 9 -6 9 -14z m-1337 -9 c3 -8
1 -20 -4 -28 -6 -10 -9 -7 -9 14 0 29 5 35 13 14z m557 -37 c0 -5 -4 -10 -10
-10 -5 0 -10 5 -10 10 0 6 5 10 10 10 6 0 10 -4 10 -10z m605 0 c3 -6 -4 -10
-17 -10 -18 0 -20 2 -8 10 19 12 18 12 25 0z"/>
<path d="M2000 2950 c-14 -4 -53 -8 -87 -9 -57 -1 -64 -4 -80 -28 -10 -16 -22
-31 -28 -35 -6 -5 -5 -8 4 -8 8 0 29 -11 47 -25 18 -14 44 -25 58 -25 19 0 26
-5 26 -20 0 -20 15 -28 22 -11 2 4 14 11 28 15 14 3 19 3 12 0 -16 -7 -6 -24
15 -24 9 0 13 6 9 15 -3 9 3 19 15 25 22 12 39 6 39 -14 0 -20 34 -46 62 -46
13 0 35 11 48 25 13 14 29 25 36 25 18 0 32 -29 26 -52 -4 -17 0 -19 49 -16
47 3 54 5 51 23 -2 16 -1 17 7 5 13 -19 22 -10 15 17 -8 30 -70 60 -149 73
-84 13 -91 17 -69 41 9 11 15 20 13 22 -25 17 -61 28 -73 24 -8 -3 -18 -2 -21
3 -7 12 -39 11 -75 0z"/>
<path d="M1544 2592 c-42 -54 -55 -96 -24 -77 14 8 63 105 53 104 -5 0 -17
-12 -29 -27z"/>
<path d="M1466 2457 c-29 -48 -34 -101 -12 -122 9 -10 28 -13 57 -9 53 6 70
19 38 29 -54 17 -89 91 -57 123 6 6 9 14 6 18 -4 3 -18 -14 -32 -39z"/>
<path d="M1595 2426 c-11 -7 -33 -21 -50 -32 l-30 -19 35 -5 c26 -4 36 -11 40
-30 l6 -25 8 23 c4 12 12 19 18 16 6 -4 33 -9 60 -11 37 -3 50 0 54 12 3 8 12
15 19 15 7 0 15 4 17 9 6 16 98 -5 118 -27 18 -19 50 -21 50 -3 0 17 -48 50
-86 60 -44 12 -72 6 -90 -17 -18 -24 -62 -17 -104 17 -44 35 -39 34 -65 17z"/>
<path d="M2408 2183 c7 -3 16 -2 19 1 4 3 -2 6 -13 5 -11 0 -14 -3 -6 -6z"/>
<path d="M2415 2150 c3 -5 8 -10 11 -10 2 0 4 5 4 10 0 6 -5 10 -11 10 -5 0
-7 -4 -4 -10z"/>
<path d="M2220 2000 c19 -13 30 -13 30 0 0 6 -10 10 -22 10 -19 0 -20 -2 -8
-10z"/>
<path d="M2138 1913 c7 -3 16 -2 19 1 4 3 -2 6 -13 5 -11 0 -14 -3 -6 -6z"/>
<path d="M1520 1260 c0 -5 5 -10 10 -10 6 0 10 5 10 10 0 6 -4 10 -10 10 -5 0
-10 -4 -10 -10z"/>
<path d="M1586 1241 c-3 -5 1 -11 9 -14 9 -4 12 -1 8 9 -6 16 -10 17 -17 5z"/>
<path d="M1680 872 c0 -12 19 -26 26 -19 2 2 -2 10 -11 17 -9 8 -15 8 -15 2z"/>
<path d="M110 1056 c0 -9 5 -16 10 -16 6 0 10 4 10 9 0 6 -4 13 -10 16 -5 3
-10 -1 -10 -9z"/>
<path d="M560 1134 c0 -8 5 -12 10 -9 6 3 10 -4 10 -16 0 -28 5 -23 14 14 5
23 3 27 -14 27 -11 0 -20 -7 -20 -16z"/>
<path d="M552 980 c0 -14 2 -19 5 -12 2 6 2 18 0 25 -3 6 -5 1 -5 -13z"/>
<path d="M2415 880 c3 -5 8 -10 11 -10 2 0 4 5 4 10 0 6 -5 10 -11 10 -5 0 -7
-4 -4 -10z"/>
<path d="M2508 563 c7 -3 16 -2 19 1 4 3 -2 6 -13 5 -11 0 -14 -3 -6 -6z"/>
<path d="M3416 466 c-3 -14 -3 -32 0 -40 4 -10 1 -16 -7 -16 -8 0 -14 -11 -14
-25 0 -24 3 -25 53 -25 50 0 52 1 42 20 -6 11 -8 20 -5 20 4 0 -2 12 -13 28
-10 15 -22 35 -25 45 -9 24 -24 21 -31 -7z"/>
<path d="M250 209 c0 -64 4 -98 10 -94 6 3 10 22 10 41 0 31 3 34 29 34 30 0
71 38 71 66 0 28 -39 54 -80 54 l-40 0 0 -101z m84 59 c15 -25 -3 -52 -38 -56
-24 -3 -26 -1 -26 38 0 39 2 41 26 38 15 -2 32 -11 38 -20z"/>
<path d="M423 221 c-18 -49 -33 -94 -33 -100 0 -23 21 -10 31 19 10 26 16 30
49 30 32 0 41 -5 52 -27 11 -24 21 -30 30 -20 2 1 -12 44 -31 95 -43 121 -55
121 -98 3z m76 -18 c1 -8 -11 -13 -30 -13 -33 0 -33 3 -7 70 l10 25 13 -35 c8
-19 14 -41 14 -47z"/>
<path d="M592 215 c3 -97 20 -135 26 -57 3 37 6 43 24 40 12 -2 26 -12 32 -23
29 -54 38 -65 47 -59 6 3 0 23 -14 48 -23 42 -23 43 -5 65 23 29 23 36 -2 61
-14 14 -33 20 -65 20 l-46 0 3 -95z m92 52 c9 -15 7 -21 -8 -33 -36 -26 -56
-18 -56 22 0 32 2 35 26 32 15 -2 32 -11 38 -21z"/>
<path d="M769 293 c-3 -72 4 -169 13 -174 5 -3 26 -5 46 -4 51 3 52 4 52 15 0
6 -20 10 -45 10 -43 0 -45 1 -45 30 0 28 3 30 34 30 48 0 55 18 9 22 -35 3
-38 6 -41 36 -3 32 -3 32 42 32 25 0 46 5 46 10 0 6 -25 10 -55 10 -45 0 -55
-3 -56 -17z"/>
<path d="M927 297 c-28 -20 -18 -57 23 -85 22 -15 35 -31 35 -45 0 -19 -5 -22
-43 -21 -47 1 -52 -15 -10 -30 39 -14 82 12 86 51 3 27 -2 34 -26 47 -17 9
-37 23 -46 32 -24 24 -2 48 37 40 20 -4 27 -2 25 7 -6 17 -60 20 -81 4z"/>
<path d="M1062 215 c3 -97 20 -135 26 -57 l3 42 45 0 44 0 0 -46 c0 -27 4 -43
10 -39 13 8 13 195 1 195 -6 0 -11 -19 -13 -42 -3 -43 -3 -43 -45 -46 l-43 -3
0 45 c0 35 -4 46 -15 46 -13 0 -15 -15 -13 -95z"/>
<path d="M1330 215 c0 -78 3 -95 15 -95 11 0 15 12 15 46 l0 46 40 -51 c52
-65 73 -56 24 10 l-36 49 37 42 c22 27 31 44 24 47 -7 2 -30 -16 -50 -40 l-38
-44 -1 43 c0 30 -4 42 -15 42 -12 0 -15 -17 -15 -95z"/>
<path d="M1500 231 c0 -74 2 -81 26 -100 35 -28 65 -26 98 4 24 22 26 31 26
100 0 60 -3 75 -15 75 -12 0 -15 -15 -15 -73 0 -80 -9 -97 -50 -97 -41 0 -50
17 -50 97 0 42 -4 73 -10 73 -6 0 -10 -33 -10 -79z"/>
<path d="M1702 215 c4 -115 21 -126 28 -18 l5 78 30 -75 c29 -74 44 -96 56
-82 3 4 19 40 35 79 16 40 31 73 34 73 3 0 5 -34 5 -75 0 -111 19 -94 23 21 3
94 2 95 -20 92 -18 -2 -29 -18 -52 -75 -16 -40 -32 -70 -36 -68 -3 2 -19 36
-35 74 -24 60 -32 71 -52 71 -24 0 -24 -1 -21 -95z"/>
<path d="M2020 306 c0 -2 -15 -44 -34 -95 -33 -88 -33 -134 -1 -71 13 25 21
30 53 30 31 0 40 -5 56 -33 32 -56 30 -11 -5 83 -25 67 -38 90 -51 90 -10 0
-18 -2 -18 -4z m29 -48 c25 -68 25 -68 -13 -68 l-35 0 16 45 c8 25 17 45 19
45 3 0 8 -10 13 -22z"/>
<path d="M2162 215 c2 -55 7 -95 13 -95 6 0 10 18 10 40 0 35 3 40 23 40 17 0
27 -10 42 -45 11 -25 24 -45 30 -45 15 0 12 16 -10 62 -17 35 -17 42 -5 55 38
38 5 83 -61 83 l-45 0 3 -95z m86 43 c3 -22 -2 -29 -22 -34 -40 -10 -46 1 -37
59 0 5 13 7 29 5 21 -2 28 -9 30 -30z"/>
<path d="M2412 215 c3 -97 20 -135 26 -57 l3 42 45 0 c30 0 44 -4 43 -12 -4
-36 2 -79 11 -73 6 3 10 48 10 101 0 56 -4 94 -10 94 -10 0 -11 -4 -14 -55 -1
-28 -4 -30 -43 -33 l-43 -3 0 45 c0 35 -4 46 -15 46 -13 0 -15 -15 -13 -95z"/>
<path d="M2621 224 c-17 -47 -31 -92 -31 -100 0 -21 19 -7 30 22 8 20 16 24
50 24 34 0 42 -4 50 -24 10 -28 30 -43 30 -24 0 7 -14 52 -31 100 -42 117 -56
117 -98 2z m62 34 c3 -13 9 -33 12 -45 7 -21 4 -23 -24 -23 -34 0 -37 8 -19
57 14 39 24 42 31 11z"/>
<path d="M2792 215 c4 -117 22 -131 26 -20 l3 79 41 -74 c66 -120 78 -117 78
16 0 113 -18 127 -22 17 l-3 -78 -43 78 c-31 55 -49 77 -63 77 -18 0 -20 -6
-17 -95z"/>
<path d="M3007 297 c-32 -23 -19 -68 26 -92 27 -14 37 -26 35 -40 -3 -17 -10
-20 -45 -19 -47 1 -55 -9 -23 -26 28 -15 87 4 95 31 10 31 -2 53 -45 77 -42
24 -45 29 -31 51 6 10 19 12 41 8 23 -5 30 -3 28 6 -6 17 -60 20 -81 4z"/>
<path d="M3140 217 c0 -104 4 -110 60 -103 61 7 90 40 90 104 0 60 -25 84 -93
90 l-57 4 0 -95z m98 57 c17 -12 22 -25 22 -59 0 -53 -19 -75 -66 -75 l-34 0
0 75 0 75 28 0 c15 0 38 -7 50 -16z"/>
<path d="M3380 306 c0 -2 -15 -44 -34 -95 -33 -88 -33 -134 -1 -71 15 28 20
31 58 28 34 -2 42 -7 47 -27 6 -26 30 -42 30 -20 0 6 -15 52 -32 100 -24 66
-38 89 -50 89 -10 0 -18 -2 -18 -4z m29 -48 c25 -68 25 -68 -13 -68 l-35 0 16
45 c8 25 17 45 19 45 3 0 8 -10 13 -22z"/>
</g>
</svg>
